<svg width="40" height="40" viewBox="0 0 40 40" fill="none" xmlns="http://www.w3.org/2000/svg">
<mask id="mask0_239_7473" style="mask-type:alpha" maskUnits="userSpaceOnUse" x="0" y="0" width="40" height="40">
<rect width="40" height="40" fill="#D9D9D9"/>
</mask>
<g mask="url(#mask0_239_7473)">
<path d="M20 10C19.0833 10 18.2986 9.67365 17.6458 9.02087C16.9931 8.3681 16.6667 7.58337 16.6667 6.66671C16.6667 5.75004 16.9931 4.96532 17.6458 4.31254C18.2986 3.65976 19.0833 3.33337 20 3.33337C20.9167 3.33337 21.7014 3.65976 22.3542 4.31254C23.0069 4.96532 23.3333 5.75004 23.3333 6.66671C23.3333 7.58337 23.0069 8.3681 22.3542 9.02087C21.7014 9.67365 20.9167 10 20 10ZM15 36.6667V15C13.3333 14.8612 11.6389 14.6528 9.91667 14.375C8.19444 14.0973 6.55556 13.75 5 13.3334L5.83333 10C8 10.5834 10.3056 11.007 12.75 11.2709C15.1944 11.5348 17.6111 11.6667 20 11.6667C22.3889 11.6667 24.8056 11.5348 27.25 11.2709C29.6944 11.007 32 10.5834 34.1667 10L35 13.3334C33.4444 13.75 31.8056 14.0973 30.0833 14.375C28.3611 14.6528 26.6667 14.8612 25 15V36.6667H21.6667V26.6667H18.3333V36.6667H15Z" fill="#1C1B1F"/>
</g>
</svg>
