<svg width="48" height="48" viewBox="0 0 48 48" fill="none" xmlns="http://www.w3.org/2000/svg">
<mask id="mask0_235_5126" style="mask-type:alpha" maskUnits="userSpaceOnUse" x="0" y="0" width="48" height="48">
<rect width="48" height="48" fill="#D9D9D9"/>
</mask>
<g mask="url(#mask0_235_5126)">
<path d="M24.0132 44.8002C21.0832 44.8002 18.3459 44.2665 15.8012 43.1992C13.2565 42.1319 11.0539 40.6679 9.1932 38.8072C7.33253 36.9465 5.86853 34.7439 4.8012 32.1992C3.73386 29.6545 3.2002 26.9215 3.2002 24.0002C3.2002 21.0791 3.73485 18.3486 4.80415 15.8087C5.87345 13.2688 7.34011 11.0657 9.20414 9.19955C11.0682 7.33331 13.267 5.86686 15.8005 4.8002C18.3341 3.73353 21.0745 3.2002 24.0218 3.2002C26.5726 3.2002 28.9569 3.59673 31.1745 4.3898C33.3922 5.18283 35.4008 6.30296 37.2002 7.7502L34.6002 10.3502C33.1308 9.26196 31.5028 8.40658 29.7161 7.78405C27.9294 7.16148 26.0241 6.8502 24.0002 6.8502C19.1335 6.8502 15.0585 8.49186 11.7752 11.7752C8.49186 15.0585 6.8502 19.1335 6.8502 24.0002C6.8502 28.8669 8.49186 32.9419 11.7752 36.2252C15.0585 39.5085 19.1335 41.1502 24.0002 41.1502C25.215 41.1502 26.3887 41.0339 27.5213 40.8013C28.6539 40.5687 29.7302 40.235 30.7502 39.8002L33.5502 42.6002C32.103 43.297 30.584 43.8379 28.9932 44.2228C27.4024 44.6077 25.7424 44.8002 24.0132 44.8002ZM38.2002 39.8002V33.8002H32.2002V30.1502H38.2002V24.1502H41.8502V30.1502H47.8502V33.8002H41.8502V39.8002H38.2002ZM21.0502 33.6002L12.3002 24.8002L15.0002 22.1002L21.0502 28.1502L42.1002 7.1002L44.8502 9.8002L21.0502 33.6002Z" fill="#1C1B1F"/>
</g>
</svg>
