<svg width="40" height="40" viewBox="0 0 40 40" fill="none" xmlns="http://www.w3.org/2000/svg">
<mask id="mask0_239_7466" style="mask-type:alpha" maskUnits="userSpaceOnUse" x="0" y="0" width="40" height="40">
<rect width="40" height="40" fill="#D9D9D9"/>
</mask>
<g mask="url(#mask0_239_7466)">
<path d="M1.6665 28.3333V11.6666H4.99984V25H18.3332V11.6666H31.6665C33.4998 11.6666 35.0693 12.3194 36.3748 13.625C37.6804 14.9305 38.3332 16.5 38.3332 18.3333V28.3333H1.6665ZM21.6665 25H34.9998V18.3333C34.9998 17.4166 34.6735 16.6319 34.0207 15.9791C33.3679 15.3263 32.5832 15 31.6665 15H21.6665V25ZM11.6665 23.3333C13.0554 23.3333 14.2359 22.8472 15.2082 21.875C16.1804 20.9027 16.6665 19.7222 16.6665 18.3333C16.6665 16.9444 16.1804 15.7638 15.2082 14.7916C14.2359 13.8194 13.0554 13.3333 11.6665 13.3333C10.2776 13.3333 9.09706 13.8194 8.12484 14.7916C7.15262 15.7638 6.6665 16.9444 6.6665 18.3333C6.6665 19.7222 7.15262 20.9027 8.12484 21.875C9.09706 22.8472 10.2776 23.3333 11.6665 23.3333ZM11.6665 20C11.1943 20 10.7984 19.8402 10.479 19.5208C10.1596 19.2013 9.99984 18.8055 9.99984 18.3333C9.99984 17.8611 10.1596 17.4652 10.479 17.1458C10.7984 16.8263 11.1943 16.6666 11.6665 16.6666C12.1387 16.6666 12.5346 16.8263 12.854 17.1458C13.1734 17.4652 13.3332 17.8611 13.3332 18.3333C13.3332 18.8055 13.1734 19.2013 12.854 19.5208C12.5346 19.8402 12.1387 20 11.6665 20Z" fill="#1C1B1F"/>
</g>
</svg>
