<svg width="40" height="40" viewBox="0 0 40 40" fill="none" xmlns="http://www.w3.org/2000/svg">
<mask id="mask0_235_5082" style="mask-type:alpha" maskUnits="userSpaceOnUse" x="0" y="0" width="40" height="40">
<rect width="40" height="40" fill="#D9D9D9"/>
</mask>
<g mask="url(#mask0_235_5082)">
<path d="M30.2777 20.7975V18.0797H36.6666V20.7975H30.2777ZM32.3333 32.4842L27.1944 28.7336L28.861 26.5593L33.9999 30.3099L32.3333 32.4842ZM28.9444 12.2907L27.2777 10.1165L32.3333 6.39307L33.9999 8.56731L28.9444 12.2907ZM8.61104 30.8535V24.3307H6.111C5.34711 24.3307 4.69318 24.0646 4.14921 23.5324C3.60524 23.0001 3.33325 22.3603 3.33325 21.6129V17.2643C3.33325 16.5169 3.60524 15.8771 4.14921 15.3449C4.69318 14.8127 5.34711 14.5465 6.111 14.5465H13.3333L21.6666 9.65446V29.2228L13.3333 24.3307H11.3888V30.8535H8.61104ZM18.8888 24.4123V14.465L14.0833 17.2643H6.111V21.6129H14.0833L18.8888 24.4123ZM23.3333 24.9015V13.9758C24.0833 14.6281 24.6874 15.423 25.1458 16.3607C25.6041 17.2983 25.8333 18.3243 25.8333 19.4386C25.8333 20.5529 25.6041 21.5789 25.1458 22.5166C24.6874 23.4542 24.0833 24.2492 23.3333 24.9015Z" fill="#1C1B1F"/>
</g>
</svg>
