<svg width="40" height="40" viewBox="0 0 40 40" fill="none" xmlns="http://www.w3.org/2000/svg">
<mask id="mask0_239_7480" style="mask-type:alpha" maskUnits="userSpaceOnUse" x="0" y="0" width="40" height="40">
<rect width="40" height="40" fill="#D9D9D9"/>
</mask>
<g mask="url(#mask0_239_7480)">
<path d="M21.6667 38.3333V28.3333L18.1667 25L16.5 32.3333L5 30L5.66667 26.6667L13.6667 28.3333L16.3333 14.8333L13.3333 16V21.6667H10V13.8333L16.5833 11C17.5556 10.5833 18.2708 10.3125 18.7292 10.1875C19.1875 10.0625 19.6111 10 20 10C20.5833 10 21.125 10.1528 21.625 10.4583C22.125 10.7639 22.5278 11.1667 22.8333 11.6667L24.5 14.3333C25.2222 15.5 26.2014 16.4583 27.4375 17.2083C28.6736 17.9583 30.0833 18.3333 31.6667 18.3333V21.6667C29.8333 21.6667 28.1181 21.2847 26.5208 20.5208C24.9236 19.7569 23.5833 18.75 22.5 17.5L21.5 22.5L25 25.8333V38.3333H21.6667ZM22.5 9.16667C21.5833 9.16667 20.7986 8.84028 20.1458 8.1875C19.4931 7.53472 19.1667 6.75 19.1667 5.83333C19.1667 4.91667 19.4931 4.13194 20.1458 3.47917C20.7986 2.82639 21.5833 2.5 22.5 2.5C23.4167 2.5 24.2014 2.82639 24.8542 3.47917C25.5069 4.13194 25.8333 4.91667 25.8333 5.83333C25.8333 6.75 25.5069 7.53472 24.8542 8.1875C24.2014 8.84028 23.4167 9.16667 22.5 9.16667Z" fill="#1C1B1F"/>
</g>
</svg>
