<svg width="40" height="40" viewBox="0 0 40 40" fill="none" xmlns="http://www.w3.org/2000/svg">
<mask id="mask0_239_7910" style="mask-type:alpha" maskUnits="userSpaceOnUse" x="0" y="0" width="40" height="40">
<rect width="40" height="40" fill="#D9D9D9"/>
</mask>
<g mask="url(#mask0_239_7910)">
<path d="M34.4167 15.625L32.0833 13.2916L33.3333 12L28 6.66662L26.7083 7.91662L24.3333 5.54162L25.5833 4.24996C26.2222 3.61107 27.0139 3.29857 27.9583 3.31245C28.9028 3.32634 29.6944 3.65273 30.3333 4.29162L35.7083 9.66662C36.3472 10.3055 36.6667 11.0902 36.6667 12.0208C36.6667 12.9513 36.3472 13.7361 35.7083 14.375L34.4167 15.625ZM14.4167 35.6666C13.7778 36.3055 12.9931 36.625 12.0625 36.625C11.1319 36.625 10.3472 36.3055 9.70833 35.6666L4.33333 30.2916C3.69444 29.6527 3.375 28.868 3.375 27.9375C3.375 27.0069 3.69444 26.2222 4.33333 25.5833L5.58333 24.3333L7.95833 26.7083L6.66667 27.9583L12.0417 33.3333L13.2917 32.0416L15.6667 34.4166L14.4167 35.6666ZM30.9583 21.6666L33.3333 19.2916L20.7083 6.66662L18.3333 9.04162L30.9583 21.6666ZM19.2917 33.3333L21.6667 30.9166L9.08333 18.3333L6.66667 20.7083L19.2917 33.3333ZM19.0417 23.5833L23.625 19.0416L20.9583 16.375L16.4167 20.9583L19.0417 23.5833ZM21.6667 35.6666C21.0278 36.3055 20.2361 36.625 19.2917 36.625C18.3472 36.625 17.5556 36.3055 16.9167 35.6666L4.33333 23.0833C3.69444 22.4444 3.375 21.6527 3.375 20.7083C3.375 19.7638 3.69444 18.9722 4.33333 18.3333L6.70833 15.9583C7.34722 15.3194 8.13195 15 9.0625 15C9.99306 15 10.7778 15.3194 11.4167 15.9583L14.0417 18.5833L18.625 14L16 11.4166C15.3611 10.7777 15.0417 9.98607 15.0417 9.04162C15.0417 8.09718 15.3611 7.30551 16 6.66662L18.375 4.29162C19.0139 3.65273 19.7986 3.33329 20.7292 3.33329C21.6597 3.33329 22.4444 3.65273 23.0833 4.29162L35.7083 16.9166C36.3472 17.5555 36.6667 18.3402 36.6667 19.2708C36.6667 20.2013 36.3472 20.9861 35.7083 21.625L33.3333 24C32.6944 24.6388 31.9028 24.9583 30.9583 24.9583C30.0139 24.9583 29.2222 24.6388 28.5833 24L26 21.375L21.4167 25.9583L24.0417 28.5833C24.6806 29.2222 25 30.0069 25 30.9375C25 31.868 24.6806 32.6527 24.0417 33.2916L21.6667 35.6666Z" fill="#1C1B1F"/>
</g>
</svg>
