<svg width="28" height="28" viewBox="0 0 28 28" fill="none" xmlns="http://www.w3.org/2000/svg">
<mask id="mask0_235_5364" style="mask-type:alpha" maskUnits="userSpaceOnUse" x="0" y="0" width="28" height="28">
<rect width="28" height="28" fill="#D9D9D9"/>
</mask>
<g mask="url(#mask0_235_5364)">
<path d="M2.33301 25.6666C2.33301 23.5083 2.61981 21.6659 3.19342 20.1395C3.76704 18.6131 4.50106 17.3444 5.39551 16.3333C6.28995 15.3221 7.29134 14.5395 8.39967 13.9853C9.50801 13.4312 10.5969 13.0471 11.6663 12.8333V9.33325C9.00245 9.0027 6.78092 8.18117 5.00176 6.86867C3.22259 5.55617 2.33301 4.04436 2.33301 2.33325H25.6663C25.6663 4.04436 24.7768 5.55617 22.9976 6.86867C21.2184 8.18117 18.9969 9.0027 16.333 9.33325V12.8333C17.4025 13.0471 18.4913 13.4312 19.5997 13.9853C20.708 14.5395 21.7094 15.3221 22.6038 16.3333C23.4983 17.3444 24.2323 18.6131 24.8059 20.1395C25.3795 21.6659 25.6663 23.5083 25.6663 25.6666H18.6663V23.3333H23.1872C22.8372 20.3777 21.7337 18.2388 19.8768 16.9166C18.0198 15.5944 16.0608 14.9333 13.9997 14.9333C11.9386 14.9333 9.97954 15.5944 8.12259 16.9166C6.26565 18.2388 5.16217 20.3777 4.81217 23.3333H9.33301V25.6666H2.33301ZM13.9997 7.14575C15.7691 7.14575 17.3441 6.90756 18.7247 6.43117C20.1052 5.95478 21.2038 5.36659 22.0205 4.66659H5.97884C6.79551 5.36659 7.89412 5.95478 9.27467 6.43117C10.6552 6.90756 12.2302 7.14575 13.9997 7.14575ZM13.9997 25.6666C13.358 25.6666 12.8087 25.4381 12.3518 24.9812C11.8948 24.5242 11.6663 23.9749 11.6663 23.3333C11.6663 23.0027 11.7295 22.7013 11.8559 22.4291C11.9823 22.1569 12.1525 21.9138 12.3663 21.6999C12.833 21.2333 13.6205 20.7423 14.7288 20.227C15.8372 19.7117 17.1497 19.1916 18.6663 18.6666C18.1219 20.1833 17.5969 21.4958 17.0913 22.6041C16.5858 23.7124 16.0997 24.4999 15.633 24.9666C15.4191 25.1805 15.1761 25.3506 14.9038 25.477C14.6316 25.6034 14.3302 25.6666 13.9997 25.6666Z" fill="#1C1B1F"/>
</g>
</svg>
