<svg width="28" height="28" viewBox="0 0 28 28" fill="none" xmlns="http://www.w3.org/2000/svg">
<mask id="mask0_235_5372" style="mask-type:alpha" maskUnits="userSpaceOnUse" x="0" y="0" width="28" height="28">
<rect width="28" height="28" fill="#D9D9D9"/>
</mask>
<g mask="url(#mask0_235_5372)">
<path d="M10.5 3.50008V1.16675H17.5V3.50008H10.5ZM14 25.6667C12.5611 25.6667 11.2049 25.3897 9.93125 24.8355C8.65764 24.2813 7.54444 23.5279 6.59167 22.5751C5.63889 21.6223 4.88542 20.5091 4.33125 19.2355C3.77708 17.9619 3.5 16.6056 3.5 15.1667C3.5 13.7279 3.77708 12.3716 4.33125 11.098C4.88542 9.82439 5.63889 8.71119 6.59167 7.75841C7.54444 6.80564 8.65764 6.05216 9.93125 5.498C11.2049 4.94383 12.5611 4.66675 14 4.66675C15.2056 4.66675 16.3625 4.86119 17.4708 5.25008C18.5792 5.63897 19.6194 6.20286 20.5917 6.94175L22.225 5.30841L23.8583 6.94175L22.225 8.57508C22.9639 9.5473 23.5278 10.5876 23.9167 11.6959C24.3056 12.8042 24.5 13.9612 24.5 15.1667C24.5 16.6056 24.2229 17.9619 23.6687 19.2355C23.1146 20.5091 22.3611 21.6223 21.4083 22.5751C20.4556 23.5279 19.3424 24.2813 18.0687 24.8355C16.7951 25.3897 15.4389 25.6667 14 25.6667ZM14 23.3334C16.2556 23.3334 18.1806 22.5362 19.775 20.9417C21.3694 19.3473 22.1667 17.4223 22.1667 15.1667C22.1667 12.9112 21.3694 10.9862 19.775 9.39175C18.1806 7.7973 16.2556 7.00008 14 7.00008C11.7444 7.00008 9.81944 7.7973 8.225 9.39175C6.63056 10.9862 5.83333 12.9112 5.83333 15.1667C5.83333 17.4223 6.63056 19.3473 8.225 20.9417C9.81944 22.5362 11.7444 23.3334 14 23.3334ZM11.6667 19.8334L18.6667 15.1667L11.6667 10.5001V19.8334Z" fill="#1C1B1F"/>
</g>
</svg>
