<svg width="28" height="28" viewBox="0 0 28 28" fill="none" xmlns="http://www.w3.org/2000/svg">
<mask id="mask0_235_5393" style="mask-type:alpha" maskUnits="userSpaceOnUse" x="0" y="0" width="28" height="28">
<rect width="28" height="28" fill="#D9D9D9"/>
</mask>
<g mask="url(#mask0_235_5393)">
<path d="M6.4165 25.6666V16.9166H4.6665V10.4999C4.6665 9.85825 4.89498 9.30895 5.35192 8.852C5.80887 8.39506 6.35817 8.16659 6.99984 8.16659H10.4998C11.1415 8.16659 11.6908 8.39506 12.1478 8.852C12.6047 9.30895 12.8332 9.85825 12.8332 10.4999V16.9166H11.0832V25.6666H6.4165ZM8.74984 6.99992C8.10817 6.99992 7.55887 6.77145 7.10192 6.3145C6.64498 5.85756 6.4165 5.30825 6.4165 4.66659C6.4165 4.02492 6.64498 3.47561 7.10192 3.01867C7.55887 2.56172 8.10817 2.33325 8.74984 2.33325C9.3915 2.33325 9.94081 2.56172 10.3978 3.01867C10.8547 3.47561 11.0832 4.02492 11.0832 4.66659C11.0832 5.30825 10.8547 5.85756 10.3978 6.3145C9.94081 6.77145 9.3915 6.99992 8.74984 6.99992ZM17.4998 25.6666V18.6666H13.9998L16.9748 9.74159C17.1304 9.23603 17.4172 8.84714 17.8353 8.57492C18.2533 8.3027 18.7248 8.16659 19.2498 8.16659C19.7748 8.16659 20.2464 8.3027 20.6644 8.57492C21.0825 8.84714 21.3693 9.23603 21.5248 9.74159L24.4998 18.6666H20.9998V25.6666H17.4998ZM19.2498 6.99992C18.6082 6.99992 18.0589 6.77145 17.6019 6.3145C17.145 5.85756 16.9165 5.30825 16.9165 4.66659C16.9165 4.02492 17.145 3.47561 17.6019 3.01867C18.0589 2.56172 18.6082 2.33325 19.2498 2.33325C19.8915 2.33325 20.4408 2.56172 20.8978 3.01867C21.3547 3.47561 21.5832 4.02492 21.5832 4.66659C21.5832 5.30825 21.3547 5.85756 20.8978 6.3145C20.4408 6.77145 19.8915 6.99992 19.2498 6.99992Z" fill="#1C1B1F"/>
</g>
</svg>
