<svg width="40" height="40" viewBox="0 0 40 40" fill="none" xmlns="http://www.w3.org/2000/svg">
<mask id="mask0_235_4214" style="mask-type:alpha" maskUnits="userSpaceOnUse" x="0" y="0" width="40" height="40">
<rect width="40" height="40" fill="#D9D9D9"/>
</mask>
<g mask="url(#mask0_235_4214)">
<path d="M15 13.8888V11.111H30V13.8888H15ZM15 18.8888V16.111H30V18.8888H15ZM20.5556 36.6666H9.58333C8.31017 36.6666 7.22799 36.221 6.33679 35.3298C5.4456 34.4386 5 33.3564 5 32.0833V26.6666H10V3.33325H35V18.9305C34.537 18.8749 34.0683 18.8816 33.5938 18.9505C33.1192 19.0193 32.6621 19.1423 32.2223 19.3194V6.111H12.7778V26.6666H24.2223L21.4445 29.4443H7.77775V32.0833C7.77775 32.5948 7.95136 33.0237 8.29858 33.3697C8.64581 33.7158 9.06479 33.8888 9.55554 33.8888H20.5556V36.6666ZM23.3333 36.6666V31.5416L32.5417 22.3749C32.7917 22.1249 33.0694 21.9444 33.375 21.8333C33.6806 21.7221 33.9861 21.6666 34.2917 21.6666C34.625 21.6666 34.9444 21.7291 35.25 21.8541C35.5556 21.9791 35.8333 22.1666 36.0833 22.4166L37.625 23.9583C37.8658 24.2083 38.044 24.486 38.1597 24.7916C38.2755 25.0971 38.3333 25.4027 38.3333 25.7083C38.3333 26.0138 38.2732 26.3263 38.1528 26.6458C38.0324 26.9652 37.848 27.2499 37.5997 27.4999L28.4583 36.6666H23.3333ZM25.8333 34.1666H27.4167L32.4583 29.0833L31.7083 28.2916L30.9167 27.5416L25.8333 32.5833V34.1666ZM31.7083 28.2916L30.9167 27.5416L32.4583 29.0833L31.7083 28.2916Z" fill="black"/>
</g>
</svg>
