<svg width="40" height="40" viewBox="0 0 40 40" fill="none" xmlns="http://www.w3.org/2000/svg">
<mask id="mask0_235_4235" style="mask-type:alpha" maskUnits="userSpaceOnUse" x="0" y="0" width="40" height="40">
<rect width="40" height="40" fill="#D9D9D9"/>
</mask>
<g mask="url(#mask0_235_4235)">
<path d="M9.41634 29.0833C11.0552 27.9073 12.7404 26.9976 14.4719 26.3541C16.2034 25.7106 18.046 25.3888 19.9997 25.3888C21.9534 25.3888 23.8006 25.7106 25.5413 26.3541C27.2821 26.9976 28.9719 27.9073 30.6108 29.0833C31.7497 27.7036 32.5807 26.2638 33.1038 24.7638C33.627 23.2638 33.8886 21.6758 33.8886 19.9999C33.8886 16.0833 32.5529 12.7893 29.8816 10.118C27.2103 7.44666 23.9163 6.111 19.9997 6.111C16.083 6.111 12.789 7.44666 10.1177 10.118C7.44641 12.7893 6.11076 16.0833 6.11076 19.9999C6.11076 21.6758 6.37697 23.2638 6.90938 24.7638C7.4418 26.2638 8.27745 27.7036 9.41634 29.0833ZM19.9945 21.3888C18.3776 21.3888 17.0159 20.8338 15.9094 19.7239C14.8029 18.614 14.2497 17.2506 14.2497 15.6336C14.2497 14.0167 14.8046 12.655 15.9146 11.5485C17.0245 10.442 18.3879 9.88879 20.0048 9.88879C21.6218 9.88879 22.9835 10.4438 24.09 11.5537C25.1964 12.6636 25.7497 14.027 25.7497 15.644C25.7497 17.2609 25.1947 18.6226 24.0848 19.7291C22.9749 20.8356 21.6114 21.3888 19.9945 21.3888ZM20.0127 36.6666C17.717 36.6666 15.5552 36.2291 13.5275 35.3541C11.4997 34.4791 9.73116 33.287 8.22188 31.7777C6.71263 30.2684 5.52051 28.5021 4.64551 26.4786C3.77051 24.4552 3.33301 22.2932 3.33301 19.9925C3.33301 17.6919 3.77051 15.5323 4.64551 13.5138C5.52051 11.4953 6.71263 9.73141 8.22188 8.22213C9.73116 6.71288 11.4975 5.52075 13.521 4.64575C15.5444 3.77075 17.7064 3.33325 20.0071 3.33325C22.3077 3.33325 24.4673 3.77075 26.4858 4.64575C28.5043 5.52075 30.2682 6.71288 31.7775 8.22213C33.2867 9.73141 34.4788 11.4956 35.3538 13.5147C36.2288 15.5338 36.6663 17.6912 36.6663 19.9869C36.6663 22.2826 36.2288 24.4444 35.3538 26.4721C34.4788 28.4999 33.2867 30.2684 31.7775 31.7777C30.2682 33.287 28.504 34.4791 26.4849 35.3541C24.4658 36.2291 22.3084 36.6666 20.0127 36.6666ZM19.9997 33.8888C21.5089 33.8888 22.9673 33.6689 24.3747 33.2291C25.7821 32.7893 27.1386 32.0647 28.4441 31.0555C27.1386 30.1203 25.7775 29.405 24.3608 28.9096C22.9441 28.4143 21.4904 28.1666 19.9997 28.1666C18.5089 28.1666 17.0552 28.4143 15.6386 28.9096C14.2219 29.405 12.8608 30.1203 11.5552 31.0555C12.8608 32.0647 14.2173 32.7893 15.6247 33.2291C17.0321 33.6689 18.4904 33.8888 19.9997 33.8888ZM19.9997 18.611C20.87 18.611 21.583 18.3333 22.1386 17.7777C22.6941 17.2222 22.9719 16.5092 22.9719 15.6388C22.9719 14.7684 22.6941 14.0555 22.1386 13.4999C21.583 12.9444 20.87 12.6666 19.9997 12.6666C19.1293 12.6666 18.4163 12.9444 17.8608 13.4999C17.3052 14.0555 17.0274 14.7684 17.0274 15.6388C17.0274 16.5092 17.3052 17.2222 17.8608 17.7777C18.4163 18.3333 19.1293 18.611 19.9997 18.611Z" fill="#1C1B1F"/>
</g>
</svg>
